<svg width="106" height="26" viewBox="0 0 106 26" fill="none" xmlns="http://www.w3.org/2000/svg">
<path d="M6 25.9998H0V9.99983L6 13.8167V25.9998Z" fill="#3963AB"/>
<path d="M16 26.0002H10V16.0002L16 20.1008V26.0002Z" fill="#3963AB"/>
<path d="M16 16L10 11.8056V0L16 5.53791V16Z" fill="#47B59E"/>
<path d="M20 18.2271L26 22L25.9952 0L20 4.92517V18.2271Z" fill="#47B59E"/>
<path d="M45.0449 5.78125V20H42.5938L36.2168 9.81445V20H33.7656V5.78125H36.2168L42.6133 15.9863V5.78125H45.0449ZM57.2715 18.0566V20H49.7227V18.0566H57.2715ZM50.416 5.78125V20H47.9648V5.78125H50.416ZM56.2852 11.7188V13.6328H49.7227V11.7188H56.2852ZM57.2227 5.78125V7.73438H49.7227V5.78125H57.2227ZM68.5801 18.0566V20H61.0312V18.0566H68.5801ZM61.7246 5.78125V20H59.2734V5.78125H61.7246ZM67.5938 11.7188V13.6328H61.0312V11.7188H67.5938ZM68.5312 5.78125V7.73438H61.0312V5.78125H68.5312ZM75.4551 17.4023L79.1953 5.78125H81.9004L76.8027 20H74.9766L75.4551 17.4023ZM71.998 5.78125L75.709 17.4023L76.2168 20H74.3809L69.3027 5.78125H71.998ZM88.2871 7.67578L84.0391 20H81.4707L86.8223 5.78125H88.4629L88.2871 7.67578ZM91.8418 20L87.584 7.67578L87.3984 5.78125H89.0488L94.4199 20H91.8418ZM91.6367 14.7266V16.6699H83.9023V14.7266H91.6367ZM96.2559 5.78125L99.5566 12.5684L102.857 5.78125H105.572L100.787 14.7656V20H98.3164V14.7656L93.5312 5.78125H96.2559Z" fill="black"/>
</svg>
